<?xml version="1.0" encoding="utf-8"?>
<!-- Generator: Adobe Illustrator 28.1.0, SVG Export Plug-In . SVG Version: 6.00 Build 0)  -->
<svg version="1.1" id="圖層_1" xmlns="http://www.w3.org/2000/svg" xmlns:xlink="http://www.w3.org/1999/xlink" x="0px" y="0px"
	 viewBox="0 0 130 70" style="enable-background:new 0 0 130 70;" xml:space="preserve">
<style type="text/css">
	.st0{fill:url(#SVGID_1_);}
	.st1{fill:url(#SVGID_00000168078159219465906490000010162169885567691433_);}
	.st2{fill:url(#SVGID_00000021078154619241924160000006332991374950379403_);}
	.st3{fill:url(#SVGID_00000087379064481693030500000002672705975002720185_);}
	.st4{fill:url(#SVGID_00000029766389378271115910000003674408327229217676_);}
	.st5{fill:url(#SVGID_00000147926255279614504520000011621109024913068205_);}
	.st6{fill:url(#SVGID_00000126294393383462389820000016652077743974050233_);}
</style>
<g>
	
		<linearGradient id="SVGID_1_" gradientUnits="userSpaceOnUse" x1="45.5296" y1="65.9252" x2="86.9477" y2="6.3412" gradientTransform="matrix(1 0 0 -1 0 72.9)">
		<stop  offset="0.2528" style="stop-color:#823E93"/>
		<stop  offset="1" style="stop-color:#5D318B"/>
	</linearGradient>
	<path class="st0" d="M90.7,8.3H39.3c-5.2,0-9.4,4.2-9.4,9.4v34.7c0,5.2,4.2,9.4,9.4,9.4h51.4c5.2,0,9.4-4.2,9.4-9.4V17.7
		C100.2,12.5,95.9,8.3,90.7,8.3z M95.6,52.4c0,2.7-2.2,4.8-4.8,4.8H39.4c-2.7,0-4.8-2.2-4.8-4.8V17.7c0-2.7,2.2-4.8,4.8-4.8h51.4
		c2.7,0,4.8,2.2,4.8,4.8V52.4z"/>
	
		<linearGradient id="SVGID_00000072981390603719763890000000157435603755896240_" gradientUnits="userSpaceOnUse" x1="46.5781" y1="66.654" x2="87.9962" y2="7.07" gradientTransform="matrix(1 0 0 -1 0 72.9)">
		<stop  offset="0.2528" style="stop-color:#823E93"/>
		<stop  offset="1" style="stop-color:#5D318B"/>
	</linearGradient>
	<path style="fill:url(#SVGID_00000072981390603719763890000000157435603755896240_);" d="M90.3,30.3H39.1c-1.6,0-2.8,0.9-2.8,2
		c0,1.1,1.2,2,2.8,2h51.2c1.6,0,2.8-0.9,2.8-2C93.1,31.2,91.8,30.3,90.3,30.3z"/>
	
		<linearGradient id="SVGID_00000131351204983244082570000002289314814895023270_" gradientUnits="userSpaceOnUse" x1="24.7394" y1="51.4734" x2="66.1575" y2="-8.1106" gradientTransform="matrix(1 0 0 -1 0 72.9)">
		<stop  offset="0.2528" style="stop-color:#823E93"/>
		<stop  offset="1" style="stop-color:#5D318B"/>
	</linearGradient>
	<path style="fill:url(#SVGID_00000131351204983244082570000002289314814895023270_);" d="M45.6,47.7h-3.3l0,0c-1.1,0-2,0.6-2,1.4
		c0,0.8,0.9,1.4,2,1.5h3.3l0,0c1.1,0,2-0.6,2-1.4C47.6,48.3,46.7,47.7,45.6,47.7z"/>
	
		<linearGradient id="SVGID_00000134950063580738561580000010828767226944311183_" gradientUnits="userSpaceOnUse" x1="34.0018" y1="57.4379" x2="75.4199" y2="-2.1461" gradientTransform="matrix(1 0 0 -1 0 72.9)">
		<stop  offset="0.2528" style="stop-color:#823E93"/>
		<stop  offset="1" style="stop-color:#5D318B"/>
	</linearGradient>
	<path style="fill:url(#SVGID_00000134950063580738561580000010828767226944311183_);" d="M59,47.7h-3.3l0,0c-1.1,0-2,0.6-2,1.4
		c0,0.8,0.9,1.4,2,1.5H59l0,0c1.1,0,2-0.6,2-1.4C61.1,48.3,60.1,47.7,59,47.7z"/>
	
		<linearGradient id="SVGID_00000045598492054238480120000015769873813255741083_" gradientUnits="userSpaceOnUse" x1="43.6301" y1="64.6048" x2="85.0482" y2="5.0208" gradientTransform="matrix(1 0 0 -1 0 72.9)">
		<stop  offset="0.2528" style="stop-color:#823E93"/>
		<stop  offset="1" style="stop-color:#5D318B"/>
	</linearGradient>
	<path style="fill:url(#SVGID_00000045598492054238480120000015769873813255741083_);" d="M73.7,47.8h-3.3l0,0c-1.1,0-2,0.6-2,1.4
		c0,0.8,0.9,1.4,2,1.5h3.3l0,0c1.1,0,2-0.6,2-1.4C75.7,48.4,74.8,47.8,73.7,47.8z"/>
	
		<linearGradient id="SVGID_00000038394812896369247100000004939337488651855240_" gradientUnits="userSpaceOnUse" x1="53.3031" y1="71.3287" x2="94.7212" y2="11.7447" gradientTransform="matrix(1 0 0 -1 0 72.9)">
		<stop  offset="0.2528" style="stop-color:#823E93"/>
		<stop  offset="1" style="stop-color:#5D318B"/>
	</linearGradient>
	<path style="fill:url(#SVGID_00000038394812896369247100000004939337488651855240_);" d="M88.1,47.8h-3.3l0,0c-1.1,0-2,0.6-2,1.4
		c0,0.8,0.9,1.4,2,1.5h3.3l0,0c1.1,0,2-0.6,2-1.4C90.1,48.4,89.2,47.8,88.1,47.8z"/>
	
		<linearGradient id="SVGID_00000104679635917807864780000011887482418631496123_" gradientUnits="userSpaceOnUse" x1="64.6828" y1="79.239" x2="106.101" y2="19.655" gradientTransform="matrix(1 0 0 -1 0 72.9)">
		<stop  offset="0.2528" style="stop-color:#823E93"/>
		<stop  offset="1" style="stop-color:#5D318B"/>
	</linearGradient>
	<path style="fill:url(#SVGID_00000104679635917807864780000011887482418631496123_);" d="M81.8,26.6h3.9c2.8,0,5.2-2.3,5.2-5.2
		v-0.4c0-2.8-2.3-5.2-5.2-5.2h-3.9c-2.8,0-5.2,2.3-5.2,5.2v0.4C76.6,24.3,79,26.6,81.8,26.6z M79.3,20.9c0-1.4,1.1-2.5,2.5-2.5h3.9
		c1.4,0,2.5,1.1,2.5,2.5v0.4c0,1.4-1.1,2.5-2.5,2.5h-3.9c-1.4,0-2.5-1.1-2.5-2.5V20.9z"/>
</g>
</svg>
